- 
http://www.Speed.Cd 
       
http://www.Speed.Cd       the fast  and The Hottest Private Tracker on the net

(((--Registration will be open on june every weekend--)))

Please Seed back to make the speed Faster!!!

------------------nfo--------------------------
-                                                                                                     
       
     
     
       
       
     
     
                                         
                                         
                EXVID                    
                                         
         
                                         
         Filled the Archives             
                                         
         
                                         
                With:                    
                                         
         
                                         
                                    
     E240                           
                                    
     SP               (C) 2009      
                                         
     
     
     
                                                                                  
                                                                                   
             Revenge.of.the.Ninja.1983.WS.DVDRip.XviD-EXViD                         
                                                                                   
                                                                                  
     
                                                                                               
EXViD aims to iNTERNAL those releases which have been lost in the archives.
EXViD aims to PRE non-internal releases which have poor sources and are likely skipped by others. 
http://www.imdb.com/title/tt0086192/
Subtitles: None
Date: 2011.07

Director: Sam Firstenberg

Genres: Action | Drama

Plot:
After his family is killed in Japan by ninjas, Cho and his son Kane come to America to start a
new life. He opens a doll shop but is unwittingly importing heroin in the dolls. When he finds
out that his friend has betrayed him, Cho must prepare for the ultimate battle he has ever been
involved in.

Cast:
Sh Kosugi 	 ... 	 Cho Osaki 
Keith Vitali 	 ... 	 Dave Hatcher 
Virgil Frye 	 ... 	 Lieutenant Dire 
Arthur Roberts 	 ... 	 Braden 
Mario Gallo 	 ... 	 Chifano 
Grace Oshita 	 ... 	 Grandmother 
Ashley Ferrare 	 ... 	 Cathy 
Kane Kosugi 	 ... 	 Kane Osaki 
John LaMotta 	 ... 	 Joe (as John La Motta) 
Mel Hampton 	 ... 	 Detective Rios 
Oscar Rowland 	 ... 	 One Eyed Informant 
Professor Toru Tanaka 	 ... 	 Sumo Servant (as Prof. Toru Tanaka) 
Don Shanks 	 ... 	 Chief 
Joe Pagliuso 	 ... 	 Alberto 
Ladd Anderson 	 ... 	 Thief #1

Stats:
Format                           : AVI
Format/Info                      : Audio Video Interleave
File size                        : 701 MiB
Duration                         : 1h 26mn
Overall bit rate                 : 1 134 Kbps
Writing application              : Nandub v1.0rc2
Writing library                  : Nandub build 1852/release

Video
ID                               : 0
Format                           : MPEG-4 Visual
Format profile                   : Advanced Simple@L5
Format settings, BVOP            : 2
Format settings, QPel            : No
Format settings, GMC             : No warppoints
Format settings, Matrix          : Default (H.263)
Codec ID                         : XVID
Codec ID/Hint                    : XviD
Duration                         : 1h 26mn
Bit rate                         : 1 048 Kbps
Width                            : 592 pixels
Height                           : 320 pixels
Display aspect ratio             : 1.850
Frame rate                       : 25.000 fps
Color space                      : YUV
Chroma subsampling               : 4:2:0
Bit depth                        : 8 bits
Scan type                        : Progressive
Compression mode                 : Lossy
Bits/(Pixel*Frame)               : 0.221
Stream size                      : 648 MiB (92%)
Writing library                  : XviD 1.2.1 (UTC 2008-12-04)

Audio
ID                               : 1
Format                           : MPEG Audio
Format version                   : Version 1
Format profile                   : Layer 3
Codec ID                         : 55
Codec ID/Hint                    : MP3
Duration                         : 1h 26mn
Bit rate mode                    : Variable
Bit rate                         : 73.0 Kbps
Nominal bit rate                 : 80.0 Kbps
Channel(s)                       : 1 channel
Sampling rate                    : 48.0 KHz
Compression mode                 : Lossy
Stream size                      : 45.1 MiB (6%)
Alignment                        : Aligned on interleaves
Interleave, duration             : 24 ms (0.60 video frame)
Interleave, preload duration     : 423 ms
Writing library                  : LAME3.98r
Encoding settings                : -m m -V 4 -q 3 -lowpass 20.3 --abr 80




Release notes:
From the new R2 WS DVD released in May 2011:
The TWiST release is from the R1 "open matte" DVD which was the only DVD available at that time:
enjoy!

Looking for:
75TB+ Archives
DUTCH/FLEMiSH Archives
                                                                                                    
Greets: CRBS EPiSODE FiCO FLS iLS KLASSiGER LiPSYNC MADE NODLABS RUNNER SPRiNTER      
   

                                                                    ASCII DONE BY XX^NFO 2oo9